<svg data-logo="logo" xmlns="http://www.w3.org/2000/svg" viewBox="0 0 250.66000366210938 42" width="250.66000366210938" height="42">
        <g style="opacity: 1;" id="logogram" transform="translate(0, 0.5)&#10;    rotate(0 32.5 20.5)"><path d="M13.5998 0.699913C19.6248 0.699913 24.5089 5.58408 24.5089 11.609V30.6999C24.5089 31.202 24.9159 31.609 25.418 31.609C25.9201 31.609 26.3271 31.202 26.3271 30.6999V11.609C26.3271 5.58408 31.2113 0.699913 37.2362 0.699913H51.7816C58.8107 0.699913 64.5089 6.39811 64.5089 13.4272V17.9868C64.5089 21.0489 63.4053 24.0092 61.3999 26.3231L48.939 40.6999H34.5036L53.1559 19.1783L53.2571 19.0504C53.4795 18.742 53.5998 18.3698 53.5998 17.9868V13.4272C53.5998 12.423 52.7858 11.609 51.7816 11.609H39.0544V10.6999C39.0544 10.1978 38.6474 9.79082 38.1453 9.79082C37.6432 9.79082 37.2362 10.1978 37.2362 10.6999V29.7908C37.2362 35.8157 32.352 40.6999 26.3271 40.6999H24.5089C18.484 40.6999 13.5998 35.8157 13.5998 29.7908V10.6999C13.5998 10.1978 13.1928 9.79082 12.6907 9.79082C12.1887 9.79082 11.7816 10.1978 11.7816 10.6999V40.6999H0.872559V11.609C0.872559 5.58408 5.75673 0.699913 11.7816 0.699913H13.5998Z" fill="#FC5800"/></g>
        <g style="opacity: 1;" id="logotype" transform="translate(71, 8.3075)"><path fill="#111" d="M22.42 18.45L22.42 18.45Q22.42 20.41 21.75 21.73Q21.09 23.04 19.95 23.83Q18.81 24.61 17.25 24.95Q15.70 25.28 13.91 25.28L13.91 25.28Q12.48 25.28 10.94 25.12Q9.39 24.96 7.89 24.65L7.89 24.65L7.89 3.61Q9.12 3.40 10.59 3.25Q12.05 3.09 13.49 3.09L13.49 3.09Q15.94 3.09 17.48 3.60Q19.02 4.10 19.90 4.93Q20.77 5.75 21.09 6.76Q21.40 7.78 21.40 8.79L21.40 8.79Q21.40 10.33 20.65 11.52Q19.90 12.71 18.64 13.41L18.64 13.41Q20.84 14.22 21.63 15.58Q22.42 16.95 22.42 18.45ZM14.51 15.51L12.20 15.51L12.20 21.39Q12.65 21.46 13.19 21.50Q13.73 21.54 14.26 21.54L14.26 21.54Q15.00 21.54 15.70 21.41Q16.40 21.29 16.94 20.96Q17.48 20.63 17.83 20.01Q18.18 19.40 18.18 18.45L18.18 18.45Q18.18 16.88 17.18 16.20Q16.19 15.51 14.51 15.51L14.51 15.51ZM12.20 11.94L13.88 11.94Q15.52 11.94 16.36 11.23Q17.20 10.51 17.20 9.25L17.20 9.25Q17.20 8.48 16.96 8.01Q16.71 7.53 16.29 7.27Q15.87 7.01 15.31 6.92Q14.75 6.83 14.16 6.83L14.16 6.83Q13.67 6.83 13.14 6.87Q12.62 6.90 12.20 6.97L12.20 6.97L12.20 11.94ZM32.28 21.92L32.28 21.92Q32.98 21.92 33.65 21.90Q34.31 21.88 34.80 21.81L34.80 21.81L34.80 18.04Q34.39 17.96 33.79 17.91Q33.20 17.86 32.70 17.86L32.70 17.86Q32.04 17.86 31.41 17.95Q30.78 18.04 30.31 18.24Q29.84 18.45 29.55 18.84Q29.27 19.23 29.27 19.86L29.27 19.86Q29.27 20.98 30.12 21.45Q30.96 21.92 32.28 21.92ZM31.90 8.13L31.90 8.13Q33.93 8.13 35.28 8.60Q36.63 9.07 37.43 9.93Q38.23 10.79 38.59 12.03Q38.94 13.27 38.94 14.81L38.94 14.81L38.94 24.61Q37.99 24.82 36.14 25.11Q34.28 25.39 31.97 25.39L31.97 25.39Q30.39 25.39 29.12 25.11Q27.84 24.82 26.93 24.18Q26.02 23.53 25.53 22.50Q25.04 21.46 25.04 19.96L25.04 19.96Q25.04 18.52 25.60 17.54Q26.16 16.56 27.11 15.97Q28.05 15.37 29.27 15.11Q30.50 14.85 31.83 14.85L31.83 14.85Q33.51 14.85 34.80 15.13L34.80 15.13L34.80 14.60Q34.80 13.38 34.03 12.56Q33.27 11.73 31.38 11.73L31.38 11.73Q30.15 11.73 29.01 11.91Q27.88 12.08 27.18 12.33L27.18 12.33L26.58 8.86Q27.39 8.58 28.86 8.36Q30.33 8.13 31.90 8.13ZM46.01 18.88L46.01 12.12L42.26 12.12L42.26 8.55L46.01 8.55L46.01 4.42L50.31 3.72L50.31 8.55L57.20 8.55L57.20 12.12L50.31 12.12L50.31 18.77Q50.31 19.68 50.48 20.24Q50.66 20.80 50.98 21.11Q51.29 21.43 51.75 21.54Q52.20 21.64 52.76 21.64L52.76 21.64Q53.36 21.64 53.86 21.61Q54.37 21.57 54.84 21.48Q55.31 21.39 55.82 21.22Q56.33 21.04 56.92 20.77L56.92 20.77L57.52 24.48Q56.33 24.96 54.95 25.18Q53.56 25.39 52.27 25.39L52.27 25.39Q50.77 25.39 49.61 25.14Q48.45 24.89 47.65 24.20Q46.84 23.50 46.42 22.22Q46.01 20.94 46.01 18.88L46.01 18.88ZM63.51 18.88L63.51 12.12L59.76 12.12L59.76 8.55L63.51 8.55L63.51 4.42L67.81 3.72L67.81 8.55L74.70 8.55L74.70 12.12L67.81 12.12L67.81 18.77Q67.81 19.68 67.98 20.24Q68.16 20.80 68.47 21.11Q68.79 21.43 69.25 21.54Q69.70 21.64 70.26 21.64L70.26 21.64Q70.86 21.64 71.36 21.61Q71.87 21.57 72.34 21.48Q72.81 21.39 73.32 21.22Q73.83 21.04 74.42 20.77L74.42 20.77L75.02 24.48Q73.83 24.96 72.45 25.18Q71.06 25.39 69.77 25.39L69.77 25.39Q68.27 25.39 67.11 25.14Q65.95 24.89 65.15 24.20Q64.34 23.50 63.92 22.22Q63.51 20.94 63.51 18.88L63.51 18.88ZM77.08 16.91L77.08 16.91Q77.08 14.74 77.75 13.10Q78.42 11.45 79.50 10.35Q80.59 9.25 81.98 8.69Q83.39 8.13 84.86 8.13L84.86 8.13Q88.50 8.13 90.39 10.28Q92.28 12.43 92.28 16.56L92.28 16.56Q92.28 16.98 92.26 17.44Q92.24 17.89 92.20 18.17L92.20 18.17L81.53 18.17Q81.53 19.79 82.86 20.71Q84.19 21.64 86.29 21.64L86.29 21.64Q87.59 21.64 88.76 21.36Q89.93 21.08 90.73 20.80L90.73 20.80L91.33 24.48Q90.21 24.86 88.95 25.12Q87.69 25.39 86.11 25.39L86.11 25.39Q84.02 25.39 82.35 24.84Q80.69 24.30 79.52 23.23Q78.34 22.16 77.72 20.59Q77.08 19.02 77.08 16.91ZM81.53 15.20L88.11 15.20Q88.11 14.53 87.94 13.92Q87.76 13.31 87.38 12.82Q86.99 12.33 86.39 12.03Q85.80 11.73 84.92 11.73L84.92 11.73Q84.09 11.73 83.47 12.01Q82.86 12.29 82.46 12.78Q82.06 13.27 81.83 13.90Q81.60 14.53 81.53 15.20L81.53 15.20ZM102.70 25L98.36 25L98.36 12.12L94.76 12.12L94.76 8.55L98.36 8.55L98.36 7.60Q98.36 5.61 98.94 4.30Q99.52 2.98 100.50 2.20Q101.48 1.41 102.74 1.08Q104 0.74 105.33 0.74L105.33 0.74Q106.70 0.74 108.13 0.99Q109.56 1.23 110.72 1.79L110.72 1.79L109.98 5.29Q109.18 5.01 107.97 4.72Q106.77 4.42 105.68 4.42L105.68 4.42Q105.09 4.42 104.54 4.52Q104 4.63 103.60 4.98Q103.19 5.33 102.95 5.98Q102.70 6.63 102.70 7.67L102.70 7.67L102.70 8.55L109.46 8.55L109.46 12.12L102.70 12.12L102.70 25ZM120.94 3.82L120.94 3.82Q120.94 5.08 120.14 5.82Q119.33 6.55 118.21 6.55L118.21 6.55Q117.09 6.55 116.30 5.82Q115.52 5.08 115.52 3.82L115.52 3.82Q115.52 2.53 116.30 1.79Q117.09 1.06 118.21 1.06L118.21 1.06Q119.33 1.06 120.14 1.79Q120.94 2.53 120.94 3.82ZM126.78 20.84L127.34 24.30Q126.02 24.93 124.84 25.16Q123.67 25.39 122.69 25.39L122.69 25.39Q121.01 25.39 119.87 24.89Q118.73 24.41 118.05 23.48Q117.37 22.55 117.09 21.22Q116.81 19.89 116.81 18.17L116.81 18.17L116.81 12.12L112.26 12.12L112.26 8.55L121.11 8.55L121.11 18.73Q121.11 20.20 121.66 20.92Q122.20 21.64 123.46 21.64L123.46 21.64Q124.06 21.64 124.89 21.48Q125.73 21.32 126.78 20.84L126.78 20.84ZM129.59 16.91L129.59 16.91Q129.59 14.74 130.25 13.10Q130.91 11.45 132 10.35Q133.09 9.25 134.49 8.69Q135.88 8.13 137.35 8.13L137.35 8.13Q141.00 8.13 142.88 10.28Q144.78 12.43 144.78 16.56L144.78 16.56Q144.78 16.98 144.76 17.44Q144.74 17.89 144.71 18.17L144.71 18.17L134.03 18.17Q134.03 19.79 135.36 20.71Q136.69 21.64 138.79 21.64L138.79 21.64Q140.09 21.64 141.26 21.36Q142.43 21.08 143.24 20.80L143.24 20.80L143.83 24.48Q142.71 24.86 141.45 25.12Q140.19 25.39 138.62 25.39L138.62 25.39Q136.51 25.39 134.85 24.84Q133.19 24.30 132.02 23.23Q130.84 22.16 130.22 20.59Q129.59 19.02 129.59 16.91ZM134.03 15.20L140.61 15.20Q140.61 14.53 140.44 13.92Q140.26 13.31 139.88 12.82Q139.49 12.33 138.90 12.03Q138.30 11.73 137.43 11.73L137.43 11.73Q136.59 11.73 135.97 12.01Q135.36 12.29 134.96 12.78Q134.56 13.27 134.33 13.90Q134.10 14.53 134.03 15.20L134.03 15.20ZM161.78 20.84L162.34 24.30Q162.24 24.37 161.87 24.55Q161.50 24.72 160.91 24.91Q160.31 25.11 159.46 25.25Q158.60 25.39 157.51 25.39L157.51 25.39Q154.54 25.39 153.18 23.62Q151.81 21.85 151.81 18.45L151.81 18.45L151.81 4.49L147.26 4.49L147.26 0.92L156.12 0.92L156.12 18.77Q156.12 20.45 156.78 21.04Q157.44 21.64 158.46 21.64L158.46 21.64Q159.75 21.64 160.63 21.29Q161.50 20.94 161.78 20.84L161.78 20.84ZM168.85 16.67L168.85 16.67Q168.85 18.88 169.68 20.27Q170.50 21.68 172.32 21.68L172.32 21.68Q172.84 21.68 173.30 21.64Q173.75 21.61 174.25 21.54L174.25 21.54L174.25 12.57Q173.75 12.29 173.13 12.10Q172.50 11.91 171.79 11.91L171.79 11.91Q170.25 11.91 169.56 13.13Q168.85 14.36 168.85 16.67ZM178.55 0.71L178.55 24.51Q177.36 24.89 175.65 25.14Q173.93 25.39 172.28 25.39L172.28 25.39Q168.44 25.39 166.46 23.11Q164.48 20.84 164.48 16.88L164.48 16.88Q164.48 12.85 166.14 10.53Q167.81 8.20 171.06 8.20L171.06 8.20Q171.94 8.20 172.78 8.39Q173.62 8.58 174.25 8.93L174.25 8.93L174.25 1.44L178.55 0.71Z"/></g>
        
      </svg>